<svg width="1180" height="693" viewBox="0 0 1180 693" fill="none" xmlns="http://www.w3.org/2000/svg">
<g clip-path="url(#clip0_108_5)">
<rect width="1180" height="693" fill="white"/>
<rect x="-484" width="1831" height="768" fill="#FF6969"/>
<path d="M253.578 328.125C252.641 321.875 247.836 318.086 241.234 318.047C232.445 318.086 226.625 324.805 226.625 336.719C226.625 348.906 232.523 355.352 241.156 355.391C247.602 355.352 252.445 351.836 253.578 345.703L265.453 345.781C264.164 356.25 255.375 365.781 241 365.781C225.883 365.781 214.672 355.117 214.672 336.719C214.672 318.242 226.078 307.656 241 307.656C254.047 307.656 263.891 315.117 265.453 328.125H253.578ZM292.484 365.859C279.672 365.82 271.664 357.031 271.703 343.906C271.664 330.82 279.672 322.031 292.484 322.031C305.336 322.031 313.305 330.82 313.344 343.906C313.305 357.031 305.336 365.82 292.484 365.859ZM283.422 343.906C283.422 351.328 286.508 356.836 292.562 356.875C298.461 356.836 301.586 351.328 301.547 343.906C301.586 336.445 298.461 330.859 292.562 330.859C286.508 330.859 283.422 336.445 283.422 343.906ZM320.609 365V322.578H331.625V330H332.094C333.891 325.039 338.188 322.031 343.891 322.031C349.711 322.031 354.047 325.117 355.453 330H355.844C357.602 325.195 362.445 322.031 368.656 322.031C376.508 322.031 382.016 327.227 382.016 336.484V365H370.453V338.75C370.492 333.906 367.602 331.562 363.812 331.562C359.477 331.562 356.898 334.57 356.938 339.062V365H345.688V338.438C345.727 334.258 343.07 331.562 339.125 331.562C335.18 331.562 332.133 334.727 332.172 339.531V365H320.609ZM390.922 365V322.578H401.938V330H402.406C404.203 325.039 408.5 322.031 414.203 322.031C420.023 322.031 424.359 325.117 425.766 330H426.156C427.914 325.195 432.758 322.031 438.969 322.031C446.82 322.031 452.328 327.227 452.328 336.484V365H440.766V338.75C440.805 333.906 437.914 331.562 434.125 331.562C429.789 331.562 427.211 334.57 427.25 339.062V365H416V338.438C416.039 334.258 413.383 331.562 409.438 331.562C405.492 331.562 402.445 334.727 402.484 339.531V365H390.922ZM461.234 365V322.578H472.797V365H461.234ZM460.688 311.172C460.688 307.891 463.539 305.273 467.016 305.234C470.453 305.273 473.305 307.891 473.266 311.172C473.305 314.375 470.453 317.031 467.016 317.031C463.539 317.031 460.688 314.375 460.688 311.172ZM506 335.156C505.492 332.188 502.914 330.273 499.047 330.234C495.297 330.273 492.445 332.031 492.484 334.609C492.445 336.523 493.93 338.008 497.953 338.828L505.531 340.391C513.773 342.109 517.758 345.781 517.797 351.875C517.758 360.234 510.258 365.82 498.969 365.859C487.523 365.82 480.805 360.703 479.828 352.422H491.469C492.016 355.742 494.711 357.461 498.969 357.5C503.188 357.461 506 355.781 506 353.047C506 350.859 504.203 349.492 500.219 348.672L493.188 347.266C485.102 345.664 480.961 341.523 481 335.234C480.961 327.109 487.953 322.031 498.891 322.031C509.594 322.031 516.234 327.109 516.859 335.156H506ZM549.125 335.156C548.617 332.188 546.039 330.273 542.172 330.234C538.422 330.273 535.57 332.031 535.609 334.609C535.57 336.523 537.055 338.008 541.078 338.828L548.656 340.391C556.898 342.109 560.883 345.781 560.922 351.875C560.883 360.234 553.383 365.82 542.094 365.859C530.648 365.82 523.93 360.703 522.953 352.422H534.594C535.141 355.742 537.836 357.461 542.094 357.5C546.312 357.461 549.125 355.781 549.125 353.047C549.125 350.859 547.328 349.492 543.344 348.672L536.312 347.266C528.227 345.664 524.086 341.523 524.125 335.234C524.086 327.109 531.078 322.031 542.016 322.031C552.719 322.031 559.359 327.109 559.984 335.156H549.125ZM568.031 365V322.578H579.594V365H568.031ZM567.484 311.172C567.484 307.891 570.336 305.273 573.812 305.234C577.25 305.273 580.102 307.891 580.062 311.172C580.102 314.375 577.25 317.031 573.812 317.031C570.336 317.031 567.484 314.375 567.484 311.172ZM607.641 365.859C594.828 365.82 586.82 357.031 586.859 343.906C586.82 330.82 594.828 322.031 607.641 322.031C620.492 322.031 628.461 330.82 628.5 343.906C628.461 357.031 620.492 365.82 607.641 365.859ZM598.578 343.906C598.578 351.328 601.664 356.836 607.719 356.875C613.617 356.836 616.742 351.328 616.703 343.906C616.742 336.445 613.617 330.859 607.719 330.859C601.664 330.859 598.578 336.445 598.578 343.906ZM647.328 340.469V365H635.766V322.578H646.781V330H647.25C649.164 325.117 653.695 322.031 659.984 322.031C668.852 322.031 674.633 328.086 674.594 337.969V365H663.109V340C663.07 334.766 660.258 331.641 655.453 331.641C650.648 331.641 647.328 334.883 647.328 340.469ZM732.953 324.609C732.484 320.117 728.93 317.5 723.188 317.5C717.25 317.5 713.93 320.234 713.891 323.984C713.852 328.086 718.07 329.922 722.953 331.016L728.031 332.266C737.719 334.492 744.945 339.414 744.984 348.828C744.945 359.18 736.898 365.82 723.109 365.781C709.438 365.82 700.727 359.492 700.375 347.344H711.781C712.172 353.047 716.703 355.938 722.953 355.938C729.125 355.938 733.109 353.047 733.109 348.828C733.109 344.961 729.594 343.164 723.422 341.641L717.25 340.156C707.719 337.812 701.859 333.047 701.859 324.766C701.82 314.492 710.883 307.656 723.266 307.656C735.805 307.656 744.047 314.609 744.203 324.609H732.953ZM774.75 322.578V331.25H766.781V351.953C766.742 355.352 768.422 356.172 770.766 356.25C771.938 356.25 773.969 356.133 775.375 356.016V365.156C774.125 365.352 772.055 365.586 769.203 365.547C760.844 365.586 755.141 361.836 755.219 353.594V331.25H749.359V322.578H755.219V312.422H766.781V322.578H774.75ZM779.984 353.125C780.023 343.672 787.602 340.586 795.766 340.078C798.812 339.883 804.516 339.609 806.312 339.531V336.094C806.273 332.539 803.852 330.508 799.516 330.469C795.57 330.508 793.109 332.266 792.484 335.156H781.469C782.172 327.812 788.578 322.031 799.828 322.031C809.086 322.031 817.836 326.172 817.797 336.406V365H806.859V359.141H806.547C804.477 363.047 800.414 365.82 794.125 365.781C786 365.82 780.023 361.523 779.984 353.125ZM791.078 352.812C791.078 356.055 793.695 357.773 797.406 357.812C802.68 357.773 806.352 354.336 806.312 349.844V346.758C804.555 346.836 799.594 347.109 797.641 347.266C793.617 347.617 791.078 349.531 791.078 352.812ZM848.969 322.578V331.25H841V351.953C840.961 355.352 842.641 356.172 844.984 356.25C846.156 356.25 848.188 356.133 849.594 356.016V365.156C848.344 365.352 846.273 365.586 843.422 365.547C835.062 365.586 829.359 361.836 829.438 353.594V331.25H823.578V322.578H829.438V312.422H841V322.578H848.969ZM856.234 365V322.578H867.797V365H856.234ZM855.688 311.172C855.688 307.891 858.539 305.273 862.016 305.234C865.453 305.273 868.305 307.891 868.266 311.172C868.305 314.375 865.453 317.031 862.016 317.031C858.539 317.031 855.688 314.375 855.688 311.172ZM895.844 365.859C883.031 365.82 875.023 357.031 875.062 343.906C875.023 330.82 883.031 322.031 895.844 322.031C908.695 322.031 916.664 330.82 916.703 343.906C916.664 357.031 908.695 365.82 895.844 365.859ZM886.781 343.906C886.781 351.328 889.867 356.836 895.922 356.875C901.82 356.836 904.945 351.328 904.906 343.906C904.945 336.445 901.82 330.859 895.922 330.859C889.867 330.859 886.781 336.445 886.781 343.906ZM935.531 340.469V365H923.969V322.578H934.984V330H935.453C937.367 325.117 941.898 322.031 948.188 322.031C957.055 322.031 962.836 328.086 962.797 337.969V365H951.312V340C951.273 334.766 948.461 331.641 943.656 331.641C938.852 331.641 935.531 334.883 935.531 340.469Z" fill="white"/>
<path d="M244.332 392.873C244.313 403.264 241.512 411.966 229.34 418.293L226.742 414.73C232.086 411.929 235.426 408.793 237.374 405.045L227.559 405.936L226.928 401.928L238.84 401.223C239.229 399.794 239.471 398.272 239.601 396.658H228.746V392.873H244.332ZM244.258 406.492V402.633H250.752V389.645H255.465V423.414H250.752V406.492H244.258ZM290.719 408.496V412.281H283.742V423.488H278.992V412.281H271.719V423.488H266.969V412.281H259.807V408.496H290.719ZM263.443 404.859V391.24H287.008V404.859H263.443ZM268.119 401.074H282.295V394.988H268.119V401.074ZM321.074 389.645V423.414H316.361V389.645H321.074ZM294.504 415.064V392.873H299.18V411.038C303.744 410.964 308.643 410.537 313.615 409.572L314.209 413.469C308.29 414.712 302.687 415.083 297.473 415.064H294.504ZM344.564 392.428V396.287H332.059V401.854H343.154V405.564H332.059V411.947C337.235 411.91 341.354 411.706 346.086 410.982L346.531 414.805C341.225 415.584 336.382 415.732 330.277 415.732H327.383V392.428H344.564ZM349.129 423.414V389.645H353.916V423.414H349.129ZM369.316 391.908C374.679 391.89 378.649 395.341 378.668 400.184C378.649 405.045 374.679 408.478 369.316 408.496C363.991 408.478 359.909 405.045 359.928 400.184C359.909 395.341 363.991 391.89 369.316 391.908ZM358.518 412.727C364.548 412.745 372.897 412.671 380.115 411.65L380.486 415.064C372.99 416.53 364.975 416.586 359.074 416.586L358.518 412.727ZM364.641 400.184C364.622 402.855 366.645 404.396 369.316 404.377C372.007 404.396 374.048 402.855 374.066 400.184C374.048 397.549 372.007 395.99 369.316 395.99C366.645 395.99 364.622 397.549 364.641 400.184ZM382.045 423.488V389.645H386.758V423.488H382.045ZM417.299 392.873C417.28 403.264 414.479 411.966 402.307 418.293L399.709 414.73C405.053 411.929 408.393 408.793 410.341 405.045L400.525 405.936L399.895 401.928L411.807 401.223C412.196 399.794 412.438 398.272 412.567 396.658H401.713V392.873H417.299ZM417.225 406.492V402.633H423.719V389.645H428.432V423.414H423.719V406.492H417.225ZM450.809 392.688V415.361H434.48V392.688H450.809ZM439.23 411.613H446.207V396.398H439.23V411.613ZM456.301 423.488V389.645H461.088V423.488H456.301ZM478.307 395.471C478.307 400.146 480.626 404.767 485.951 406.752L483.316 410.426C479.772 409.034 477.342 406.362 475.95 403.041C474.484 406.585 471.868 409.387 468.027 410.834L465.504 407.123C471.052 405.156 473.501 400.425 473.52 395.471V391.574H478.307V395.471ZM471.627 422.82V412.318H476.414V419.035H494.82V422.82H471.627ZM483.613 404.414V400.592H489.402V397.883H483.613V394.061H489.402V389.682H494.115V414.73H489.402V404.414H483.613ZM534.49 391.018V393.318C534.509 395.489 534.509 398.198 533.841 401.594H538.164V405.305H507.252V401.594H529.072C529.61 398.848 529.722 396.64 529.759 394.766H511.037V391.018H534.49ZM510.74 411.354V407.68H534.342V417.143H515.49V419.518H535.27V423.154H510.777V413.58H529.666V411.354H510.74ZM555.494 390.127C563.269 390.127 567.759 392.168 567.777 395.879C567.759 399.646 563.269 401.668 555.494 401.668C547.701 401.668 543.174 399.646 543.174 395.879C543.174 392.168 547.701 390.127 555.494 390.127ZM540.094 407.012V403.264H570.895V407.012H540.094ZM543.656 412.43V408.979H567.146V417.588H548.332V419.629H568.037V423.191H543.693V414.285H562.471V412.43H543.656ZM548.146 395.879C548.128 397.53 550.54 398.18 555.494 398.18C560.485 398.18 562.879 397.53 562.879 395.879C562.879 394.376 560.485 393.578 555.494 393.578C550.54 393.578 548.128 394.376 548.146 395.879ZM608.486 389.682V400.035H613.051V403.895H608.486V414.879H603.736V389.682H608.486ZM581.693 396.955V393.207H589.375V389.607H594.088V393.207H601.732V396.955H581.693ZM583.326 404.674C583.326 400.759 586.796 398.143 591.713 398.143C596.611 398.143 600.025 400.759 600.025 404.674C600.025 408.57 596.611 411.131 591.713 411.131C586.796 411.131 583.326 408.57 583.326 404.674ZM586.592 422.82V412.949H591.305V419.035H609.711V422.82H586.592ZM587.965 404.674C587.946 406.529 589.449 407.531 591.713 407.531C593.995 407.531 595.535 406.529 595.535 404.674C595.535 402.8 593.995 401.761 591.713 401.742C589.449 401.761 587.946 402.8 587.965 404.674ZM650.383 391.203V393.838C650.401 396.417 650.401 399.312 649.566 403.078L644.854 402.633C645.54 399.46 645.633 397.104 645.67 394.914H626.818V391.203H650.383ZM623.367 408.645V404.896H634.871V398.625H639.547V404.896H654.02V408.645H623.367ZM625.186 419.629C632.607 418.738 636.133 415.213 636.133 411.725V410.686H640.92V411.725C640.92 415.213 644.445 418.738 651.979 419.629L650.271 423.266C644.668 422.542 640.66 420.353 638.545 417.272C636.43 420.353 632.422 422.542 626.855 423.266L625.186 419.629ZM671.535 391.352C678.66 391.37 684.245 395.229 684.264 401.074C684.245 406.975 678.66 410.815 671.535 410.797C664.392 410.815 658.844 406.975 658.844 401.074C658.844 395.229 664.392 391.37 671.535 391.352ZM656.135 419.295V415.473H687.047V419.295H656.135ZM663.445 401.074C663.427 404.748 666.841 406.938 671.535 406.938C676.192 406.938 679.569 404.748 679.588 401.074C679.569 397.456 676.192 395.174 671.535 395.211C666.841 395.174 663.427 397.456 663.445 401.074ZM719.889 415.77V419.666H688.977V415.77H702.002V410.686H692.539V399.33H711.65V395.619H692.502V391.834H716.326V403.041H697.289V406.826H717.105V410.686H706.715V415.77H719.889ZM740.373 419.295H754.252V416.92H740.373V419.295ZM730.613 403.857C736.922 403.876 745.142 403.876 752.359 402.967L752.582 406.307C749.984 406.752 747.312 407.049 744.678 407.253V411.205H740.373V413.357H754.252V410.5H758.928V423.043H735.697V410.5H739.965V407.513C736.829 407.624 733.842 407.643 731.17 407.643L730.613 403.857ZM731.801 398.922C737.163 397.827 739.594 394.951 739.631 391.871V390.498H744.492V391.871C744.474 394.729 746.941 397.438 752.174 398.439L750.17 402.002C746.292 401.223 743.602 399.423 742.099 397.011C740.633 399.664 737.905 401.668 733.879 402.521L731.801 398.922ZM754.215 409.127V389.682H758.928V409.127H754.215ZM792.697 389.645V423.414H788.244V389.645H792.697ZM763.01 413.061C769.838 409.016 772.844 404.099 773.493 397.475H764.865V393.652H778.188C778.188 396.881 777.835 399.887 777.019 402.67H781.082V390.387H785.498V421.93H781.082V406.418H775.553C773.623 410.277 770.487 413.617 765.682 416.4L763.01 413.061ZM835.93 415.584V419.48H805.018V415.584H818.043V408.682H808.283V392.131H832.479V408.682H822.756V415.584H835.93ZM812.959 404.971H827.803V395.916H812.959V404.971ZM846.951 392.02C852.109 392.02 855.839 396.677 855.857 404.043C855.839 411.465 852.109 416.104 846.951 416.104C841.774 416.104 838.026 411.465 838.045 404.043C838.026 396.677 841.774 392.02 846.951 392.02ZM842.609 404.043C842.609 409.071 844.372 411.817 846.951 411.799C849.586 411.817 851.312 409.071 851.33 404.043C851.312 399.033 849.586 396.287 846.951 396.287C844.372 396.287 842.609 399.033 842.609 404.043ZM859.754 423.414V389.645H864.504V402.373H869.477V406.307H864.504V423.414H859.754ZM901.613 415.621V419.48H870.701V415.621H883.727V409.387H873.967V391.797H878.717V397.029H893.449V391.797H898.162V409.387H888.439V415.621H901.613ZM878.717 405.602H893.449V400.814H878.717V405.602ZM914.379 398.143C914.36 403.616 915.882 409.257 920.502 412.207L917.941 415.881C915.01 414.118 913.173 411.187 912.097 407.735C910.891 411.558 908.868 414.768 905.807 416.623L902.912 413.135C907.922 410.036 909.777 404.08 909.777 398.365V392.539H914.379V398.143ZM916.939 404.896V401.037H921.318V390.127H925.734V421.855H921.318V404.896H916.939ZM928.295 423.414V389.645H932.822V423.414H928.295ZM967.297 415.584V419.48H936.385V415.584H943.287V407.309C940.671 405.731 939.094 403.338 939.094 400.369C939.094 394.896 944.438 391.296 951.785 391.277C959.096 391.296 964.495 394.896 964.514 400.369C964.495 403.282 962.974 405.639 960.432 407.216V415.584H967.297ZM943.77 400.369C943.77 403.672 946.942 405.713 951.785 405.713C956.554 405.713 959.819 403.672 959.838 400.369C959.819 396.974 956.554 395.007 951.785 395.025C946.942 395.007 943.77 396.974 943.77 400.369ZM947.963 415.584H955.645V409.016C954.438 409.257 953.14 409.387 951.785 409.387C950.431 409.387 949.15 409.257 947.963 409.034V415.584Z" fill="white"/>
</g>
<defs>
<clipPath id="clip0_108_5">
<rect width="1180" height="693" fill="white"/>
</clipPath>
</defs>
</svg>
